# xmcd CD database file
#
# Track frame offsets:
#	150
#	12617
#	24182
#	39969
#	51766
#	63947
#	81046
#	97007
#	109972
#	119334
#
# Disc length: 1726 seconds
#
# Revision: 0
# Processed by: cddbd v1.5.2PL0 Copyright (c) Steve Scherf et al.
# Submitted via: CDex 1.51
#
DISCID=7906bc0a
DTITLE=Johnny Cash and June Carter Cash - Johnny Cash and His Woman
DYEAR=1973
DGENRE=Country
TTITLE0=The Color of Love
TTITLE1=Saturday Night In Hickman County
TTITLE2=Allegheny
TTITLE3=Life Has Its Little Ups and Downs
TTITLE4=Matthew 24 (Is Knocking At The Door)
TTITLE5=The City of New Orleans
TTITLE6=Tony
TTITLE7=The Pine Tree
TTITLE8=We're For Love
TTITLE9=Godshine
EXTD=YEAR: 1973
EXTT0=
EXTT1=
EXTT2=
EXTT3=
EXTT4=
EXTT5=
EXTT6=
EXTT7=
EXTT8=
EXTT9=
PLAYORDER=
